<svg width="161" height="23" viewBox="0 0 161 23" fill="none" xmlns="http://www.w3.org/2000/svg">
<path d="M6.75 21V6.75H2V4.375H18.625V6.75H13.875V21H6.75ZM24.375 21V18.625H22V4.375H29.125V18.625H33.875V4.375H38.625V18.625H36.25V21H24.375ZM46.75 21V6.75H42V4.375H58.625V6.75H53.875V21H46.75ZM73.875 18.625V6.75H69.125V18.625H73.875ZM64.375 21V18.625H62V6.75H64.375V4.375H76.25V6.75H78.625V18.625H76.25V21H64.375ZM91.5 13.875V11.5H93.875V6.75H89.125V13.875H91.5ZM82 21V4.375H96.25V6.75H98.625V11.5H96.25V13.875H93.875V16.25H96.25V18.625H98.625V21H93.875V18.625H91.5V16.25H89.125V21H82ZM104.375 21V18.625H106.75V6.75H104.375V4.375H116.25V6.75H113.875V18.625H116.25V21H104.375ZM133.875 13.875V9.125H129.125V13.875H133.875ZM122 21V9.125H124.375V6.75H126.75V4.375H133.875V6.75H136.25V9.125H138.625V21H133.875V16.25H129.125V21H122ZM144.375 21V4.375H151.5V18.625H158.625V21H144.375Z" fill="#2F6998"/>
<path d="M6.75 21H4.75V23H6.75V21ZM6.75 6.75H8.75V4.75H6.75V6.75ZM2 6.75H0V8.75H2V6.75ZM2 4.375V2.375H0V4.375H2ZM18.625 4.375H20.625V2.375H18.625V4.375ZM18.625 6.75V8.75H20.625V6.75H18.625ZM13.875 6.75V4.75H11.875V6.75H13.875ZM13.875 21V23H15.875V21H13.875ZM8.75 21V6.75H4.75V21H8.75ZM6.75 4.75H2V8.75H6.75V4.75ZM4 6.75V4.375H0V6.75H4ZM2 6.375H18.625V2.375H2V6.375ZM16.625 4.375V6.75H20.625V4.375H16.625ZM18.625 4.75H13.875V8.75H18.625V4.75ZM11.875 6.75V21H15.875V6.75H11.875ZM13.875 19H6.75V23H13.875V19ZM24.375 21H22.375V23H24.375V21ZM24.375 18.625H26.375V16.625H24.375V18.625ZM22 18.625H20V20.625H22V18.625ZM22 4.375V2.375H20V4.375H22ZM29.125 4.375H31.125V2.375H29.125V4.375ZM29.125 18.625H27.125V20.625H29.125V18.625ZM33.875 18.625V20.625H35.875V18.625H33.875ZM33.875 4.375V2.375H31.875V4.375H33.875ZM38.625 4.375H40.625V2.375H38.625V4.375ZM38.625 18.625V20.625H40.625V18.625H38.625ZM36.25 18.625V16.625H34.25V18.625H36.25ZM36.25 21V23H38.25V21H36.25ZM26.375 21V18.625H22.375V21H26.375ZM24.375 16.625H22V20.625H24.375V16.625ZM24 18.625V4.375H20V18.625H24ZM22 6.375H29.125V2.375H22V6.375ZM27.125 4.375V18.625H31.125V4.375H27.125ZM29.125 20.625H33.875V16.625H29.125V20.625ZM35.875 18.625V4.375H31.875V18.625H35.875ZM33.875 6.375H38.625V2.375H33.875V6.375ZM36.625 4.375V18.625H40.625V4.375H36.625ZM38.625 16.625H36.25V20.625H38.625V16.625ZM34.25 18.625V21H38.25V18.625H34.25ZM36.25 19H24.375V23H36.25V19ZM46.75 21H44.75V23H46.75V21ZM46.75 6.75H48.75V4.75H46.75V6.75ZM42 6.75H40V8.75H42V6.75ZM42 4.375V2.375H40V4.375H42ZM58.625 4.375H60.625V2.375H58.625V4.375ZM58.625 6.75V8.75H60.625V6.75H58.625ZM53.875 6.75V4.75H51.875V6.75H53.875ZM53.875 21V23H55.875V21H53.875ZM48.75 21V6.75H44.75V21H48.75ZM46.75 4.75H42V8.75H46.75V4.75ZM44 6.75V4.375H40V6.75H44ZM42 6.375H58.625V2.375H42V6.375ZM56.625 4.375V6.75H60.625V4.375H56.625ZM58.625 4.75H53.875V8.75H58.625V4.75ZM51.875 6.75V21H55.875V6.75H51.875ZM53.875 19H46.75V23H53.875V19ZM73.875 18.625V20.625H75.875V18.625H73.875ZM73.875 6.75H75.875V4.75H73.875V6.75ZM69.125 6.75V4.75H67.125V6.75H69.125ZM69.125 18.625H67.125V20.625H69.125V18.625ZM64.375 21H62.375V23H64.375V21ZM64.375 18.625H66.375V16.625H64.375V18.625ZM62 18.625H60V20.625H62V18.625ZM62 6.75V4.75H60V6.75H62ZM64.375 6.75V8.75H66.375V6.75H64.375ZM64.375 4.375V2.375H62.375V4.375H64.375ZM76.25 4.375H78.25V2.375H76.25V4.375ZM76.25 6.75H74.25V8.75H76.25V6.75ZM78.625 6.75H80.625V4.75H78.625V6.75ZM78.625 18.625V20.625H80.625V18.625H78.625ZM76.25 18.625V16.625H74.25V18.625H76.25ZM76.25 21V23H78.25V21H76.25ZM75.875 18.625V6.75H71.875V18.625H75.875ZM73.875 4.75H69.125V8.75H73.875V4.75ZM67.125 6.75V18.625H71.125V6.75H67.125ZM69.125 20.625H73.875V16.625H69.125V20.625ZM66.375 21V18.625H62.375V21H66.375ZM64.375 16.625H62V20.625H64.375V16.625ZM64 18.625V6.75H60V18.625H64ZM62 8.75H64.375V4.75H62V8.75ZM66.375 6.75V4.375H62.375V6.75H66.375ZM64.375 6.375H76.25V2.375H64.375V6.375ZM74.25 4.375V6.75H78.25V4.375H74.25ZM76.25 8.75H78.625V4.75H76.25V8.75ZM76.625 6.75V18.625H80.625V6.75H76.625ZM78.625 16.625H76.25V20.625H78.625V16.625ZM74.25 18.625V21H78.25V18.625H74.25ZM76.25 19H64.375V23H76.25V19ZM91.5 13.875V15.875H93.5V13.875H91.5ZM91.5 11.5V9.5H89.5V11.5H91.5ZM93.875 11.5V13.5H95.875V11.5H93.875ZM93.875 6.75H95.875V4.75H93.875V6.75ZM89.125 6.75V4.75H87.125V6.75H89.125ZM89.125 13.875H87.125V15.875H89.125V13.875ZM82 21H80V23H82V21ZM82 4.375V2.375H80V4.375H82ZM96.25 4.375H98.25V2.375H96.25V4.375ZM96.25 6.75H94.25V8.75H96.25V6.75ZM98.625 6.75H100.625V4.75H98.625V6.75ZM98.625 11.5V13.5H100.625V11.5H98.625ZM96.25 11.5V9.5H94.25V11.5H96.25ZM96.25 13.875V15.875H98.25V13.875H96.25ZM93.875 13.875V11.875H91.875V13.875H93.875ZM93.875 16.25H91.875V18.25H93.875V16.25ZM96.25 16.25H98.25V14.25H96.25V16.25ZM96.25 18.625H94.25V20.625H96.25V18.625ZM98.625 18.625H100.625V16.625H98.625V18.625ZM98.625 21V23H100.625V21H98.625ZM93.875 21H91.875V23H93.875V21ZM93.875 18.625H95.875V16.625H93.875V18.625ZM91.5 18.625H89.5V20.625H91.5V18.625ZM91.5 16.25H93.5V14.25H91.5V16.25ZM89.125 16.25V14.25H87.125V16.25H89.125ZM89.125 21V23H91.125V21H89.125ZM93.5 13.875V11.5H89.5V13.875H93.5ZM91.5 13.5H93.875V9.5H91.5V13.5ZM95.875 11.5V6.75H91.875V11.5H95.875ZM93.875 4.75H89.125V8.75H93.875V4.75ZM87.125 6.75V13.875H91.125V6.75H87.125ZM89.125 15.875H91.5V11.875H89.125V15.875ZM84 21V4.375H80V21H84ZM82 6.375H96.25V2.375H82V6.375ZM94.25 4.375V6.75H98.25V4.375H94.25ZM96.25 8.75H98.625V4.75H96.25V8.75ZM96.625 6.75V11.5H100.625V6.75H96.625ZM98.625 9.5H96.25V13.5H98.625V9.5ZM94.25 11.5V13.875H98.25V11.5H94.25ZM96.25 11.875H93.875V15.875H96.25V11.875ZM91.875 13.875V16.25H95.875V13.875H91.875ZM93.875 18.25H96.25V14.25H93.875V18.25ZM94.25 16.25V18.625H98.25V16.25H94.25ZM96.25 20.625H98.625V16.625H96.25V20.625ZM96.625 18.625V21H100.625V18.625H96.625ZM98.625 19H93.875V23H98.625V19ZM95.875 21V18.625H91.875V21H95.875ZM93.875 16.625H91.5V20.625H93.875V16.625ZM93.5 18.625V16.25H89.5V18.625H93.5ZM91.5 14.25H89.125V18.25H91.5V14.25ZM87.125 16.25V21H91.125V16.25H87.125ZM89.125 19H82V23H89.125V19ZM104.375 21H102.375V23H104.375V21ZM104.375 18.625V16.625H102.375V18.625H104.375ZM106.75 18.625V20.625H108.75V18.625H106.75ZM106.75 6.75H108.75V4.75H106.75V6.75ZM104.375 6.75H102.375V8.75H104.375V6.75ZM104.375 4.375V2.375H102.375V4.375H104.375ZM116.25 4.375H118.25V2.375H116.25V4.375ZM116.25 6.75V8.75H118.25V6.75H116.25ZM113.875 6.75V4.75H111.875V6.75H113.875ZM113.875 18.625H111.875V20.625H113.875V18.625ZM116.25 18.625H118.25V16.625H116.25V18.625ZM116.25 21V23H118.25V21H116.25ZM106.375 21V18.625H102.375V21H106.375ZM104.375 20.625H106.75V16.625H104.375V20.625ZM108.75 18.625V6.75H104.75V18.625H108.75ZM106.75 4.75H104.375V8.75H106.75V4.75ZM106.375 6.75V4.375H102.375V6.75H106.375ZM104.375 6.375H116.25V2.375H104.375V6.375ZM114.25 4.375V6.75H118.25V4.375H114.25ZM116.25 4.75H113.875V8.75H116.25V4.75ZM111.875 6.75V18.625H115.875V6.75H111.875ZM113.875 20.625H116.25V16.625H113.875V20.625ZM114.25 18.625V21H118.25V18.625H114.25ZM116.25 19H104.375V23H116.25V19ZM133.875 13.875V15.875H135.875V13.875H133.875ZM133.875 9.125H135.875V7.125H133.875V9.125ZM129.125 9.125V7.125H127.125V9.125H129.125ZM129.125 13.875H127.125V15.875H129.125V13.875ZM122 21H120V23H122V21ZM122 9.125V7.125H120V9.125H122ZM124.375 9.125V11.125H126.375V9.125H124.375ZM124.375 6.75V4.75H122.375V6.75H124.375ZM126.75 6.75V8.75H128.75V6.75H126.75ZM126.75 4.375V2.375H124.75V4.375H126.75ZM133.875 4.375H135.875V2.375H133.875V4.375ZM133.875 6.75H131.875V8.75H133.875V6.75ZM136.25 6.75H138.25V4.75H136.25V6.75ZM136.25 9.125H134.25V11.125H136.25V9.125ZM138.625 9.125H140.625V7.125H138.625V9.125ZM138.625 21V23H140.625V21H138.625ZM133.875 21H131.875V23H133.875V21ZM133.875 16.25H135.875V14.25H133.875V16.25ZM129.125 16.25V14.25H127.125V16.25H129.125ZM129.125 21V23H131.125V21H129.125ZM135.875 13.875V9.125H131.875V13.875H135.875ZM133.875 7.125H129.125V11.125H133.875V7.125ZM127.125 9.125V13.875H131.125V9.125H127.125ZM129.125 15.875H133.875V11.875H129.125V15.875ZM124 21V9.125H120V21H124ZM122 11.125H124.375V7.125H122V11.125ZM126.375 9.125V6.75H122.375V9.125H126.375ZM124.375 8.75H126.75V4.75H124.375V8.75ZM128.75 6.75V4.375H124.75V6.75H128.75ZM126.75 6.375H133.875V2.375H126.75V6.375ZM131.875 4.375V6.75H135.875V4.375H131.875ZM133.875 8.75H136.25V4.75H133.875V8.75ZM134.25 6.75V9.125H138.25V6.75H134.25ZM136.25 11.125H138.625V7.125H136.25V11.125ZM136.625 9.125V21H140.625V9.125H136.625ZM138.625 19H133.875V23H138.625V19ZM135.875 21V16.25H131.875V21H135.875ZM133.875 14.25H129.125V18.25H133.875V14.25ZM127.125 16.25V21H131.125V16.25H127.125ZM129.125 19H122V23H129.125V19ZM144.375 21H142.375V23H144.375V21ZM144.375 4.375V2.375H142.375V4.375H144.375ZM151.5 4.375H153.5V2.375H151.5V4.375ZM151.5 18.625H149.5V20.625H151.5V18.625ZM158.625 18.625H160.625V16.625H158.625V18.625ZM158.625 21V23H160.625V21H158.625ZM146.375 21V4.375H142.375V21H146.375ZM144.375 6.375H151.5V2.375H144.375V6.375ZM149.5 4.375V18.625H153.5V4.375H149.5ZM151.5 20.625H158.625V16.625H151.5V20.625ZM156.625 18.625V21H160.625V18.625H156.625ZM158.625 19H144.375V23H158.625V19Z" fill="#2F6998"/>
<path d="M4.75 19V4.75H0V2.375H16.625V4.75H11.875V19H4.75ZM22.375 19V16.625H20V2.375H27.125V16.625H31.875V2.375H36.625V16.625H34.25V19H22.375ZM44.75 19V4.75H40V2.375H56.625V4.75H51.875V19H44.75ZM71.875 16.625V4.75H67.125V16.625H71.875ZM62.375 19V16.625H60V4.75H62.375V2.375H74.25V4.75H76.625V16.625H74.25V19H62.375ZM89.5 11.875V9.5H91.875V4.75H87.125V11.875H89.5ZM80 19V2.375H94.25V4.75H96.625V9.5H94.25V11.875H91.875V14.25H94.25V16.625H96.625V19H91.875V16.625H89.5V14.25H87.125V19H80ZM102.375 19V16.625H104.75V4.75H102.375V2.375H114.25V4.75H111.875V16.625H114.25V19H102.375ZM131.875 11.875V7.125H127.125V11.875H131.875ZM120 19V7.125H122.375V4.75H124.75V2.375H131.875V4.75H134.25V7.125H136.625V19H131.875V14.25H127.125V19H120ZM142.375 19V2.375H149.5V16.625H156.625V19H142.375Z" fill="#B7FEFF"/>
<path d="M4.75 19H2.75V21H4.75V19ZM4.75 4.75H6.75V2.75H4.75V4.75ZM0 4.75H-2V6.75H0V4.75ZM0 2.375V0.375H-2V2.375H0ZM16.625 2.375H18.625V0.375H16.625V2.375ZM16.625 4.75V6.75H18.625V4.75H16.625ZM11.875 4.75V2.75H9.875V4.75H11.875ZM11.875 19V21H13.875V19H11.875ZM6.75 19V4.75H2.75V19H6.75ZM4.75 2.75H0V6.75H4.75V2.75ZM2 4.75V2.375H-2V4.75H2ZM0 4.375H16.625V0.375H0V4.375ZM14.625 2.375V4.75H18.625V2.375H14.625ZM16.625 2.75H11.875V6.75H16.625V2.75ZM9.875 4.75V19H13.875V4.75H9.875ZM11.875 17H4.75V21H11.875V17ZM22.375 19H20.375V21H22.375V19ZM22.375 16.625H24.375V14.625H22.375V16.625ZM20 16.625H18V18.625H20V16.625ZM20 2.375V0.375H18V2.375H20ZM27.125 2.375H29.125V0.375H27.125V2.375ZM27.125 16.625H25.125V18.625H27.125V16.625ZM31.875 16.625V18.625H33.875V16.625H31.875ZM31.875 2.375V0.375H29.875V2.375H31.875ZM36.625 2.375H38.625V0.375H36.625V2.375ZM36.625 16.625V18.625H38.625V16.625H36.625ZM34.25 16.625V14.625H32.25V16.625H34.25ZM34.25 19V21H36.25V19H34.25ZM24.375 19V16.625H20.375V19H24.375ZM22.375 14.625H20V18.625H22.375V14.625ZM22 16.625V2.375H18V16.625H22ZM20 4.375H27.125V0.375H20V4.375ZM25.125 2.375V16.625H29.125V2.375H25.125ZM27.125 18.625H31.875V14.625H27.125V18.625ZM33.875 16.625V2.375H29.875V16.625H33.875ZM31.875 4.375H36.625V0.375H31.875V4.375ZM34.625 2.375V16.625H38.625V2.375H34.625ZM36.625 14.625H34.25V18.625H36.625V14.625ZM32.25 16.625V19H36.25V16.625H32.25ZM34.25 17H22.375V21H34.25V17ZM44.75 19H42.75V21H44.75V19ZM44.75 4.75H46.75V2.75H44.75V4.75ZM40 4.75H38V6.75H40V4.75ZM40 2.375V0.375H38V2.375H40ZM56.625 2.375H58.625V0.375H56.625V2.375ZM56.625 4.75V6.75H58.625V4.75H56.625ZM51.875 4.75V2.75H49.875V4.75H51.875ZM51.875 19V21H53.875V19H51.875ZM46.75 19V4.75H42.75V19H46.75ZM44.75 2.75H40V6.75H44.75V2.75ZM42 4.75V2.375H38V4.75H42ZM40 4.375H56.625V0.375H40V4.375ZM54.625 2.375V4.75H58.625V2.375H54.625ZM56.625 2.75H51.875V6.75H56.625V2.75ZM49.875 4.75V19H53.875V4.75H49.875ZM51.875 17H44.75V21H51.875V17ZM71.875 16.625V18.625H73.875V16.625H71.875ZM71.875 4.75H73.875V2.75H71.875V4.75ZM67.125 4.75V2.75H65.125V4.75H67.125ZM67.125 16.625H65.125V18.625H67.125V16.625ZM62.375 19H60.375V21H62.375V19ZM62.375 16.625H64.375V14.625H62.375V16.625ZM60 16.625H58V18.625H60V16.625ZM60 4.75V2.75H58V4.75H60ZM62.375 4.75V6.75H64.375V4.75H62.375ZM62.375 2.375V0.375H60.375V2.375H62.375ZM74.25 2.375H76.25V0.375H74.25V2.375ZM74.25 4.75H72.25V6.75H74.25V4.75ZM76.625 4.75H78.625V2.75H76.625V4.75ZM76.625 16.625V18.625H78.625V16.625H76.625ZM74.25 16.625V14.625H72.25V16.625H74.25ZM74.25 19V21H76.25V19H74.25ZM73.875 16.625V4.75H69.875V16.625H73.875ZM71.875 2.75H67.125V6.75H71.875V2.75ZM65.125 4.75V16.625H69.125V4.75H65.125ZM67.125 18.625H71.875V14.625H67.125V18.625ZM64.375 19V16.625H60.375V19H64.375ZM62.375 14.625H60V18.625H62.375V14.625ZM62 16.625V4.75H58V16.625H62ZM60 6.75H62.375V2.75H60V6.75ZM64.375 4.75V2.375H60.375V4.75H64.375ZM62.375 4.375H74.25V0.375H62.375V4.375ZM72.25 2.375V4.75H76.25V2.375H72.25ZM74.25 6.75H76.625V2.75H74.25V6.75ZM74.625 4.75V16.625H78.625V4.75H74.625ZM76.625 14.625H74.25V18.625H76.625V14.625ZM72.25 16.625V19H76.25V16.625H72.25ZM74.25 17H62.375V21H74.25V17ZM89.5 11.875V13.875H91.5V11.875H89.5ZM89.5 9.5V7.5H87.5V9.5H89.5ZM91.875 9.5V11.5H93.875V9.5H91.875ZM91.875 4.75H93.875V2.75H91.875V4.75ZM87.125 4.75V2.75H85.125V4.75H87.125ZM87.125 11.875H85.125V13.875H87.125V11.875ZM80 19H78V21H80V19ZM80 2.375V0.375H78V2.375H80ZM94.25 2.375H96.25V0.375H94.25V2.375ZM94.25 4.75H92.25V6.75H94.25V4.75ZM96.625 4.75H98.625V2.75H96.625V4.75ZM96.625 9.5V11.5H98.625V9.5H96.625ZM94.25 9.5V7.5H92.25V9.5H94.25ZM94.25 11.875V13.875H96.25V11.875H94.25ZM91.875 11.875V9.875H89.875V11.875H91.875ZM91.875 14.25H89.875V16.25H91.875V14.25ZM94.25 14.25H96.25V12.25H94.25V14.25ZM94.25 16.625H92.25V18.625H94.25V16.625ZM96.625 16.625H98.625V14.625H96.625V16.625ZM96.625 19V21H98.625V19H96.625ZM91.875 19H89.875V21H91.875V19ZM91.875 16.625H93.875V14.625H91.875V16.625ZM89.5 16.625H87.5V18.625H89.5V16.625ZM89.5 14.25H91.5V12.25H89.5V14.25ZM87.125 14.25V12.25H85.125V14.25H87.125ZM87.125 19V21H89.125V19H87.125ZM91.5 11.875V9.5H87.5V11.875H91.5ZM89.5 11.5H91.875V7.5H89.5V11.5ZM93.875 9.5V4.75H89.875V9.5H93.875ZM91.875 2.75H87.125V6.75H91.875V2.75ZM85.125 4.75V11.875H89.125V4.75H85.125ZM87.125 13.875H89.5V9.875H87.125V13.875ZM82 19V2.375H78V19H82ZM80 4.375H94.25V0.375H80V4.375ZM92.25 2.375V4.75H96.25V2.375H92.25ZM94.25 6.75H96.625V2.75H94.25V6.75ZM94.625 4.75V9.5H98.625V4.75H94.625ZM96.625 7.5H94.25V11.5H96.625V7.5ZM92.25 9.5V11.875H96.25V9.5H92.25ZM94.25 9.875H91.875V13.875H94.25V9.875ZM89.875 11.875V14.25H93.875V11.875H89.875ZM91.875 16.25H94.25V12.25H91.875V16.25ZM92.25 14.25V16.625H96.25V14.25H92.25ZM94.25 18.625H96.625V14.625H94.25V18.625ZM94.625 16.625V19H98.625V16.625H94.625ZM96.625 17H91.875V21H96.625V17ZM93.875 19V16.625H89.875V19H93.875ZM91.875 14.625H89.5V18.625H91.875V14.625ZM91.5 16.625V14.25H87.5V16.625H91.5ZM89.5 12.25H87.125V16.25H89.5V12.25ZM85.125 14.25V19H89.125V14.25H85.125ZM87.125 17H80V21H87.125V17ZM102.375 19H100.375V21H102.375V19ZM102.375 16.625V14.625H100.375V16.625H102.375ZM104.75 16.625V18.625H106.75V16.625H104.75ZM104.75 4.75H106.75V2.75H104.75V4.75ZM102.375 4.75H100.375V6.75H102.375V4.75ZM102.375 2.375V0.375H100.375V2.375H102.375ZM114.25 2.375H116.25V0.375H114.25V2.375ZM114.25 4.75V6.75H116.25V4.75H114.25ZM111.875 4.75V2.75H109.875V4.75H111.875ZM111.875 16.625H109.875V18.625H111.875V16.625ZM114.25 16.625H116.25V14.625H114.25V16.625ZM114.25 19V21H116.25V19H114.25ZM104.375 19V16.625H100.375V19H104.375ZM102.375 18.625H104.75V14.625H102.375V18.625ZM106.75 16.625V4.75H102.75V16.625H106.75ZM104.75 2.75H102.375V6.75H104.75V2.75ZM104.375 4.75V2.375H100.375V4.75H104.375ZM102.375 4.375H114.25V0.375H102.375V4.375ZM112.25 2.375V4.75H116.25V2.375H112.25ZM114.25 2.75H111.875V6.75H114.25V2.75ZM109.875 4.75V16.625H113.875V4.75H109.875ZM111.875 18.625H114.25V14.625H111.875V18.625ZM112.25 16.625V19H116.25V16.625H112.25ZM114.25 17H102.375V21H114.25V17ZM131.875 11.875V13.875H133.875V11.875H131.875ZM131.875 7.125H133.875V5.125H131.875V7.125ZM127.125 7.125V5.125H125.125V7.125H127.125ZM127.125 11.875H125.125V13.875H127.125V11.875ZM120 19H118V21H120V19ZM120 7.125V5.125H118V7.125H120ZM122.375 7.125V9.125H124.375V7.125H122.375ZM122.375 4.75V2.75H120.375V4.75H122.375ZM124.75 4.75V6.75H126.75V4.75H124.75ZM124.75 2.375V0.375H122.75V2.375H124.75ZM131.875 2.375H133.875V0.375H131.875V2.375ZM131.875 4.75H129.875V6.75H131.875V4.75ZM134.25 4.75H136.25V2.75H134.25V4.75ZM134.25 7.125H132.25V9.125H134.25V7.125ZM136.625 7.125H138.625V5.125H136.625V7.125ZM136.625 19V21H138.625V19H136.625ZM131.875 19H129.875V21H131.875V19ZM131.875 14.25H133.875V12.25H131.875V14.25ZM127.125 14.25V12.25H125.125V14.25H127.125ZM127.125 19V21H129.125V19H127.125ZM133.875 11.875V7.125H129.875V11.875H133.875ZM131.875 5.125H127.125V9.125H131.875V5.125ZM125.125 7.125V11.875H129.125V7.125H125.125ZM127.125 13.875H131.875V9.875H127.125V13.875ZM122 19V7.125H118V19H122ZM120 9.125H122.375V5.125H120V9.125ZM124.375 7.125V4.75H120.375V7.125H124.375ZM122.375 6.75H124.75V2.75H122.375V6.75ZM126.75 4.75V2.375H122.75V4.75H126.75ZM124.75 4.375H131.875V0.375H124.75V4.375ZM129.875 2.375V4.75H133.875V2.375H129.875ZM131.875 6.75H134.25V2.75H131.875V6.75ZM132.25 4.75V7.125H136.25V4.75H132.25ZM134.25 9.125H136.625V5.125H134.25V9.125ZM134.625 7.125V19H138.625V7.125H134.625ZM136.625 17H131.875V21H136.625V17ZM133.875 19V14.25H129.875V19H133.875ZM131.875 12.25H127.125V16.25H131.875V12.25ZM125.125 14.25V19H129.125V14.25H125.125ZM127.125 17H120V21H127.125V17ZM142.375 19H140.375V21H142.375V19ZM142.375 2.375V0.375H140.375V2.375H142.375ZM149.5 2.375H151.5V0.375H149.5V2.375ZM149.5 16.625H147.5V18.625H149.5V16.625ZM156.625 16.625H158.625V14.625H156.625V16.625ZM156.625 19V21H158.625V19H156.625ZM144.375 19V2.375H140.375V19H144.375ZM142.375 4.375H149.5V0.375H142.375V4.375ZM147.5 2.375V16.625H151.5V2.375H147.5ZM149.5 18.625H156.625V14.625H149.5V18.625ZM154.625 16.625V19H158.625V16.625H154.625ZM156.625 17H142.375V21H156.625V17Z" fill="#2F6998"/>
</svg>
