<svg width="101" height="23" viewBox="0 0 101 23" fill="none" xmlns="http://www.w3.org/2000/svg">
<path d="M4.375 21V18.625H2V16.25H9.125V18.625H13.875V13.875H4.375V11.5H2V6.75H4.375V4.375H13.875V6.75H16.25V9.125H11.5V6.75H9.125V11.5H16.25V13.875H18.625V18.625H16.25V21H4.375ZM26.75 21V6.75H22V4.375H38.625V6.75H33.875V21H26.75ZM53.875 13.875V9.125H49.125V13.875H53.875ZM42 21V9.125H44.375V6.75H46.75V4.375H53.875V6.75H56.25V9.125H58.625V21H53.875V16.25H49.125V21H42ZM71.5 13.875V11.5H73.875V6.75H69.125V13.875H71.5ZM62 21V4.375H76.25V6.75H78.625V11.5H76.25V13.875H73.875V16.25H76.25V18.625H78.625V21H73.875V18.625H71.5V16.25H69.125V21H62ZM86.75 21V6.75H82V4.375H98.625V6.75H93.875V21H86.75Z" fill="#2F6998"/>
<path d="M4.375 21H2.375V23H4.375V21ZM4.375 18.625H6.375V16.625H4.375V18.625ZM2 18.625H0V20.625H2V18.625ZM2 16.25V14.25H0V16.25H2ZM9.125 16.25H11.125V14.25H9.125V16.25ZM9.125 18.625H7.125V20.625H9.125V18.625ZM13.875 18.625V20.625H15.875V18.625H13.875ZM13.875 13.875H15.875V11.875H13.875V13.875ZM4.375 13.875H2.375V15.875H4.375V13.875ZM4.375 11.5H6.375V9.5H4.375V11.5ZM2 11.5H0V13.5H2V11.5ZM2 6.75V4.75H0V6.75H2ZM4.375 6.75V8.75H6.375V6.75H4.375ZM4.375 4.375V2.375H2.375V4.375H4.375ZM13.875 4.375H15.875V2.375H13.875V4.375ZM13.875 6.75H11.875V8.75H13.875V6.75ZM16.25 6.75H18.25V4.75H16.25V6.75ZM16.25 9.125V11.125H18.25V9.125H16.25ZM11.5 9.125H9.5V11.125H11.5V9.125ZM11.5 6.75H13.5V4.75H11.5V6.75ZM9.125 6.75V4.75H7.125V6.75H9.125ZM9.125 11.5H7.125V13.5H9.125V11.5ZM16.25 11.5H18.25V9.5H16.25V11.5ZM16.25 13.875H14.25V15.875H16.25V13.875ZM18.625 13.875H20.625V11.875H18.625V13.875ZM18.625 18.625V20.625H20.625V18.625H18.625ZM16.25 18.625V16.625H14.25V18.625H16.25ZM16.25 21V23H18.25V21H16.25ZM6.375 21V18.625H2.375V21H6.375ZM4.375 16.625H2V20.625H4.375V16.625ZM4 18.625V16.25H0V18.625H4ZM2 18.25H9.125V14.25H2V18.25ZM7.125 16.25V18.625H11.125V16.25H7.125ZM9.125 20.625H13.875V16.625H9.125V20.625ZM15.875 18.625V13.875H11.875V18.625H15.875ZM13.875 11.875H4.375V15.875H13.875V11.875ZM6.375 13.875V11.5H2.375V13.875H6.375ZM4.375 9.5H2V13.5H4.375V9.5ZM4 11.5V6.75H0V11.5H4ZM2 8.75H4.375V4.75H2V8.75ZM6.375 6.75V4.375H2.375V6.75H6.375ZM4.375 6.375H13.875V2.375H4.375V6.375ZM11.875 4.375V6.75H15.875V4.375H11.875ZM13.875 8.75H16.25V4.75H13.875V8.75ZM14.25 6.75V9.125H18.25V6.75H14.25ZM16.25 7.125H11.5V11.125H16.25V7.125ZM13.5 9.125V6.75H9.5V9.125H13.5ZM11.5 4.75H9.125V8.75H11.5V4.75ZM7.125 6.75V11.5H11.125V6.75H7.125ZM9.125 13.5H16.25V9.5H9.125V13.5ZM14.25 11.5V13.875H18.25V11.5H14.25ZM16.25 15.875H18.625V11.875H16.25V15.875ZM16.625 13.875V18.625H20.625V13.875H16.625ZM18.625 16.625H16.25V20.625H18.625V16.625ZM14.25 18.625V21H18.25V18.625H14.25ZM16.25 19H4.375V23H16.25V19ZM26.75 21H24.75V23H26.75V21ZM26.75 6.75H28.75V4.75H26.75V6.75ZM22 6.75H20V8.75H22V6.75ZM22 4.375V2.375H20V4.375H22ZM38.625 4.375H40.625V2.375H38.625V4.375ZM38.625 6.75V8.75H40.625V6.75H38.625ZM33.875 6.75V4.75H31.875V6.75H33.875ZM33.875 21V23H35.875V21H33.875ZM28.75 21V6.75H24.75V21H28.75ZM26.75 4.75H22V8.75H26.75V4.75ZM24 6.75V4.375H20V6.75H24ZM22 6.375H38.625V2.375H22V6.375ZM36.625 4.375V6.75H40.625V4.375H36.625ZM38.625 4.75H33.875V8.75H38.625V4.75ZM31.875 6.75V21H35.875V6.75H31.875ZM33.875 19H26.75V23H33.875V19ZM53.875 13.875V15.875H55.875V13.875H53.875ZM53.875 9.125H55.875V7.125H53.875V9.125ZM49.125 9.125V7.125H47.125V9.125H49.125ZM49.125 13.875H47.125V15.875H49.125V13.875ZM42 21H40V23H42V21ZM42 9.125V7.125H40V9.125H42ZM44.375 9.125V11.125H46.375V9.125H44.375ZM44.375 6.75V4.75H42.375V6.75H44.375ZM46.75 6.75V8.75H48.75V6.75H46.75ZM46.75 4.375V2.375H44.75V4.375H46.75ZM53.875 4.375H55.875V2.375H53.875V4.375ZM53.875 6.75H51.875V8.75H53.875V6.75ZM56.25 6.75H58.25V4.75H56.25V6.75ZM56.25 9.125H54.25V11.125H56.25V9.125ZM58.625 9.125H60.625V7.125H58.625V9.125ZM58.625 21V23H60.625V21H58.625ZM53.875 21H51.875V23H53.875V21ZM53.875 16.25H55.875V14.25H53.875V16.25ZM49.125 16.25V14.25H47.125V16.25H49.125ZM49.125 21V23H51.125V21H49.125ZM55.875 13.875V9.125H51.875V13.875H55.875ZM53.875 7.125H49.125V11.125H53.875V7.125ZM47.125 9.125V13.875H51.125V9.125H47.125ZM49.125 15.875H53.875V11.875H49.125V15.875ZM44 21V9.125H40V21H44ZM42 11.125H44.375V7.125H42V11.125ZM46.375 9.125V6.75H42.375V9.125H46.375ZM44.375 8.75H46.75V4.75H44.375V8.75ZM48.75 6.75V4.375H44.75V6.75H48.75ZM46.75 6.375H53.875V2.375H46.75V6.375ZM51.875 4.375V6.75H55.875V4.375H51.875ZM53.875 8.75H56.25V4.75H53.875V8.75ZM54.25 6.75V9.125H58.25V6.75H54.25ZM56.25 11.125H58.625V7.125H56.25V11.125ZM56.625 9.125V21H60.625V9.125H56.625ZM58.625 19H53.875V23H58.625V19ZM55.875 21V16.25H51.875V21H55.875ZM53.875 14.25H49.125V18.25H53.875V14.25ZM47.125 16.25V21H51.125V16.25H47.125ZM49.125 19H42V23H49.125V19ZM71.5 13.875V15.875H73.5V13.875H71.5ZM71.5 11.5V9.5H69.5V11.5H71.5ZM73.875 11.5V13.5H75.875V11.5H73.875ZM73.875 6.75H75.875V4.75H73.875V6.75ZM69.125 6.75V4.75H67.125V6.75H69.125ZM69.125 13.875H67.125V15.875H69.125V13.875ZM62 21H60V23H62V21ZM62 4.375V2.375H60V4.375H62ZM76.25 4.375H78.25V2.375H76.25V4.375ZM76.25 6.75H74.25V8.75H76.25V6.75ZM78.625 6.75H80.625V4.75H78.625V6.75ZM78.625 11.5V13.5H80.625V11.5H78.625ZM76.25 11.5V9.5H74.25V11.5H76.25ZM76.25 13.875V15.875H78.25V13.875H76.25ZM73.875 13.875V11.875H71.875V13.875H73.875ZM73.875 16.25H71.875V18.25H73.875V16.25ZM76.25 16.25H78.25V14.25H76.25V16.25ZM76.25 18.625H74.25V20.625H76.25V18.625ZM78.625 18.625H80.625V16.625H78.625V18.625ZM78.625 21V23H80.625V21H78.625ZM73.875 21H71.875V23H73.875V21ZM73.875 18.625H75.875V16.625H73.875V18.625ZM71.5 18.625H69.5V20.625H71.5V18.625ZM71.5 16.25H73.5V14.25H71.5V16.25ZM69.125 16.25V14.25H67.125V16.25H69.125ZM69.125 21V23H71.125V21H69.125ZM73.5 13.875V11.5H69.5V13.875H73.5ZM71.5 13.5H73.875V9.5H71.5V13.5ZM75.875 11.5V6.75H71.875V11.5H75.875ZM73.875 4.75H69.125V8.75H73.875V4.75ZM67.125 6.75V13.875H71.125V6.75H67.125ZM69.125 15.875H71.5V11.875H69.125V15.875ZM64 21V4.375H60V21H64ZM62 6.375H76.25V2.375H62V6.375ZM74.25 4.375V6.75H78.25V4.375H74.25ZM76.25 8.75H78.625V4.75H76.25V8.75ZM76.625 6.75V11.5H80.625V6.75H76.625ZM78.625 9.5H76.25V13.5H78.625V9.5ZM74.25 11.5V13.875H78.25V11.5H74.25ZM76.25 11.875H73.875V15.875H76.25V11.875ZM71.875 13.875V16.25H75.875V13.875H71.875ZM73.875 18.25H76.25V14.25H73.875V18.25ZM74.25 16.25V18.625H78.25V16.25H74.25ZM76.25 20.625H78.625V16.625H76.25V20.625ZM76.625 18.625V21H80.625V18.625H76.625ZM78.625 19H73.875V23H78.625V19ZM75.875 21V18.625H71.875V21H75.875ZM73.875 16.625H71.5V20.625H73.875V16.625ZM73.5 18.625V16.25H69.5V18.625H73.5ZM71.5 14.25H69.125V18.25H71.5V14.25ZM67.125 16.25V21H71.125V16.25H67.125ZM69.125 19H62V23H69.125V19ZM86.75 21H84.75V23H86.75V21ZM86.75 6.75H88.75V4.75H86.75V6.75ZM82 6.75H80V8.75H82V6.75ZM82 4.375V2.375H80V4.375H82ZM98.625 4.375H100.625V2.375H98.625V4.375ZM98.625 6.75V8.75H100.625V6.75H98.625ZM93.875 6.75V4.75H91.875V6.75H93.875ZM93.875 21V23H95.875V21H93.875ZM88.75 21V6.75H84.75V21H88.75ZM86.75 4.75H82V8.75H86.75V4.75ZM84 6.75V4.375H80V6.75H84ZM82 6.375H98.625V2.375H82V6.375ZM96.625 4.375V6.75H100.625V4.375H96.625ZM98.625 4.75H93.875V8.75H98.625V4.75ZM91.875 6.75V21H95.875V6.75H91.875ZM93.875 19H86.75V23H93.875V19Z" fill="#2F6998"/>
<path d="M2.375 19V16.625H0V14.25H7.125V16.625H11.875V11.875H2.375V9.5H0V4.75H2.375V2.375H11.875V4.75H14.25V7.125H9.5V4.75H7.125V9.5H14.25V11.875H16.625V16.625H14.25V19H2.375ZM24.75 19V4.75H20V2.375H36.625V4.75H31.875V19H24.75ZM51.875 11.875V7.125H47.125V11.875H51.875ZM40 19V7.125H42.375V4.75H44.75V2.375H51.875V4.75H54.25V7.125H56.625V19H51.875V14.25H47.125V19H40ZM69.5 11.875V9.5H71.875V4.75H67.125V11.875H69.5ZM60 19V2.375H74.25V4.75H76.625V9.5H74.25V11.875H71.875V14.25H74.25V16.625H76.625V19H71.875V16.625H69.5V14.25H67.125V19H60ZM84.75 19V4.75H80V2.375H96.625V4.75H91.875V19H84.75Z" fill="#FFE24A"/>
<path d="M2.375 19H0.375V21H2.375V19ZM2.375 16.625H4.375V14.625H2.375V16.625ZM0 16.625H-2V18.625H0V16.625ZM0 14.25V12.25H-2V14.25H0ZM7.125 14.25H9.125V12.25H7.125V14.25ZM7.125 16.625H5.125V18.625H7.125V16.625ZM11.875 16.625V18.625H13.875V16.625H11.875ZM11.875 11.875H13.875V9.875H11.875V11.875ZM2.375 11.875H0.375V13.875H2.375V11.875ZM2.375 9.5H4.375V7.5H2.375V9.5ZM0 9.5H-2V11.5H0V9.5ZM0 4.75V2.75H-2V4.75H0ZM2.375 4.75V6.75H4.375V4.75H2.375ZM2.375 2.375V0.375H0.375V2.375H2.375ZM11.875 2.375H13.875V0.375H11.875V2.375ZM11.875 4.75H9.875V6.75H11.875V4.75ZM14.25 4.75H16.25V2.75H14.25V4.75ZM14.25 7.125V9.125H16.25V7.125H14.25ZM9.5 7.125H7.5V9.125H9.5V7.125ZM9.5 4.75H11.5V2.75H9.5V4.75ZM7.125 4.75V2.75H5.125V4.75H7.125ZM7.125 9.5H5.125V11.5H7.125V9.5ZM14.25 9.5H16.25V7.5H14.25V9.5ZM14.25 11.875H12.25V13.875H14.25V11.875ZM16.625 11.875H18.625V9.875H16.625V11.875ZM16.625 16.625V18.625H18.625V16.625H16.625ZM14.25 16.625V14.625H12.25V16.625H14.25ZM14.25 19V21H16.25V19H14.25ZM4.375 19V16.625H0.375V19H4.375ZM2.375 14.625H0V18.625H2.375V14.625ZM2 16.625V14.25H-2V16.625H2ZM0 16.25H7.125V12.25H0V16.25ZM5.125 14.25V16.625H9.125V14.25H5.125ZM7.125 18.625H11.875V14.625H7.125V18.625ZM13.875 16.625V11.875H9.875V16.625H13.875ZM11.875 9.875H2.375V13.875H11.875V9.875ZM4.375 11.875V9.5H0.375V11.875H4.375ZM2.375 7.5H0V11.5H2.375V7.5ZM2 9.5V4.75H-2V9.5H2ZM0 6.75H2.375V2.75H0V6.75ZM4.375 4.75V2.375H0.375V4.75H4.375ZM2.375 4.375H11.875V0.375H2.375V4.375ZM9.875 2.375V4.75H13.875V2.375H9.875ZM11.875 6.75H14.25V2.75H11.875V6.75ZM12.25 4.75V7.125H16.25V4.75H12.25ZM14.25 5.125H9.5V9.125H14.25V5.125ZM11.5 7.125V4.75H7.5V7.125H11.5ZM9.5 2.75H7.125V6.75H9.5V2.75ZM5.125 4.75V9.5H9.125V4.75H5.125ZM7.125 11.5H14.25V7.5H7.125V11.5ZM12.25 9.5V11.875H16.25V9.5H12.25ZM14.25 13.875H16.625V9.875H14.25V13.875ZM14.625 11.875V16.625H18.625V11.875H14.625ZM16.625 14.625H14.25V18.625H16.625V14.625ZM12.25 16.625V19H16.25V16.625H12.25ZM14.25 17H2.375V21H14.25V17ZM24.75 19H22.75V21H24.75V19ZM24.75 4.75H26.75V2.75H24.75V4.75ZM20 4.75H18V6.75H20V4.75ZM20 2.375V0.375H18V2.375H20ZM36.625 2.375H38.625V0.375H36.625V2.375ZM36.625 4.75V6.75H38.625V4.75H36.625ZM31.875 4.75V2.75H29.875V4.75H31.875ZM31.875 19V21H33.875V19H31.875ZM26.75 19V4.75H22.75V19H26.75ZM24.75 2.75H20V6.75H24.75V2.75ZM22 4.75V2.375H18V4.75H22ZM20 4.375H36.625V0.375H20V4.375ZM34.625 2.375V4.75H38.625V2.375H34.625ZM36.625 2.75H31.875V6.75H36.625V2.75ZM29.875 4.75V19H33.875V4.75H29.875ZM31.875 17H24.75V21H31.875V17ZM51.875 11.875V13.875H53.875V11.875H51.875ZM51.875 7.125H53.875V5.125H51.875V7.125ZM47.125 7.125V5.125H45.125V7.125H47.125ZM47.125 11.875H45.125V13.875H47.125V11.875ZM40 19H38V21H40V19ZM40 7.125V5.125H38V7.125H40ZM42.375 7.125V9.125H44.375V7.125H42.375ZM42.375 4.75V2.75H40.375V4.75H42.375ZM44.75 4.75V6.75H46.75V4.75H44.75ZM44.75 2.375V0.375H42.75V2.375H44.75ZM51.875 2.375H53.875V0.375H51.875V2.375ZM51.875 4.75H49.875V6.75H51.875V4.75ZM54.25 4.75H56.25V2.75H54.25V4.75ZM54.25 7.125H52.25V9.125H54.25V7.125ZM56.625 7.125H58.625V5.125H56.625V7.125ZM56.625 19V21H58.625V19H56.625ZM51.875 19H49.875V21H51.875V19ZM51.875 14.25H53.875V12.25H51.875V14.25ZM47.125 14.25V12.25H45.125V14.25H47.125ZM47.125 19V21H49.125V19H47.125ZM53.875 11.875V7.125H49.875V11.875H53.875ZM51.875 5.125H47.125V9.125H51.875V5.125ZM45.125 7.125V11.875H49.125V7.125H45.125ZM47.125 13.875H51.875V9.875H47.125V13.875ZM42 19V7.125H38V19H42ZM40 9.125H42.375V5.125H40V9.125ZM44.375 7.125V4.75H40.375V7.125H44.375ZM42.375 6.75H44.75V2.75H42.375V6.75ZM46.75 4.75V2.375H42.75V4.75H46.75ZM44.75 4.375H51.875V0.375H44.75V4.375ZM49.875 2.375V4.75H53.875V2.375H49.875ZM51.875 6.75H54.25V2.75H51.875V6.75ZM52.25 4.75V7.125H56.25V4.75H52.25ZM54.25 9.125H56.625V5.125H54.25V9.125ZM54.625 7.125V19H58.625V7.125H54.625ZM56.625 17H51.875V21H56.625V17ZM53.875 19V14.25H49.875V19H53.875ZM51.875 12.25H47.125V16.25H51.875V12.25ZM45.125 14.25V19H49.125V14.25H45.125ZM47.125 17H40V21H47.125V17ZM69.5 11.875V13.875H71.5V11.875H69.5ZM69.5 9.5V7.5H67.5V9.5H69.5ZM71.875 9.5V11.5H73.875V9.5H71.875ZM71.875 4.75H73.875V2.75H71.875V4.75ZM67.125 4.75V2.75H65.125V4.75H67.125ZM67.125 11.875H65.125V13.875H67.125V11.875ZM60 19H58V21H60V19ZM60 2.375V0.375H58V2.375H60ZM74.25 2.375H76.25V0.375H74.25V2.375ZM74.25 4.75H72.25V6.75H74.25V4.75ZM76.625 4.75H78.625V2.75H76.625V4.75ZM76.625 9.5V11.5H78.625V9.5H76.625ZM74.25 9.5V7.5H72.25V9.5H74.25ZM74.25 11.875V13.875H76.25V11.875H74.25ZM71.875 11.875V9.875H69.875V11.875H71.875ZM71.875 14.25H69.875V16.25H71.875V14.25ZM74.25 14.25H76.25V12.25H74.25V14.25ZM74.25 16.625H72.25V18.625H74.25V16.625ZM76.625 16.625H78.625V14.625H76.625V16.625ZM76.625 19V21H78.625V19H76.625ZM71.875 19H69.875V21H71.875V19ZM71.875 16.625H73.875V14.625H71.875V16.625ZM69.5 16.625H67.5V18.625H69.5V16.625ZM69.5 14.25H71.5V12.25H69.5V14.25ZM67.125 14.25V12.25H65.125V14.25H67.125ZM67.125 19V21H69.125V19H67.125ZM71.5 11.875V9.5H67.5V11.875H71.5ZM69.5 11.5H71.875V7.5H69.5V11.5ZM73.875 9.5V4.75H69.875V9.5H73.875ZM71.875 2.75H67.125V6.75H71.875V2.75ZM65.125 4.75V11.875H69.125V4.75H65.125ZM67.125 13.875H69.5V9.875H67.125V13.875ZM62 19V2.375H58V19H62ZM60 4.375H74.25V0.375H60V4.375ZM72.25 2.375V4.75H76.25V2.375H72.25ZM74.25 6.75H76.625V2.75H74.25V6.75ZM74.625 4.75V9.5H78.625V4.75H74.625ZM76.625 7.5H74.25V11.5H76.625V7.5ZM72.25 9.5V11.875H76.25V9.5H72.25ZM74.25 9.875H71.875V13.875H74.25V9.875ZM69.875 11.875V14.25H73.875V11.875H69.875ZM71.875 16.25H74.25V12.25H71.875V16.25ZM72.25 14.25V16.625H76.25V14.25H72.25ZM74.25 18.625H76.625V14.625H74.25V18.625ZM74.625 16.625V19H78.625V16.625H74.625ZM76.625 17H71.875V21H76.625V17ZM73.875 19V16.625H69.875V19H73.875ZM71.875 14.625H69.5V18.625H71.875V14.625ZM71.5 16.625V14.25H67.5V16.625H71.5ZM69.5 12.25H67.125V16.25H69.5V12.25ZM65.125 14.25V19H69.125V14.25H65.125ZM67.125 17H60V21H67.125V17ZM84.75 19H82.75V21H84.75V19ZM84.75 4.75H86.75V2.75H84.75V4.75ZM80 4.75H78V6.75H80V4.75ZM80 2.375V0.375H78V2.375H80ZM96.625 2.375H98.625V0.375H96.625V2.375ZM96.625 4.75V6.75H98.625V4.75H96.625ZM91.875 4.75V2.75H89.875V4.75H91.875ZM91.875 19V21H93.875V19H91.875ZM86.75 19V4.75H82.75V19H86.75ZM84.75 2.75H80V6.75H84.75V2.75ZM82 4.75V2.375H78V4.75H82ZM80 4.375H96.625V0.375H80V4.375ZM94.625 2.375V4.75H98.625V2.375H94.625ZM96.625 2.75H91.875V6.75H96.625V2.75ZM89.875 4.75V19H93.875V4.75H89.875ZM91.875 17H84.75V21H91.875V17Z" fill="#2F6998"/>
</svg>
