<svg width="248" height="96" viewBox="0 0 248 96" fill="none" xmlns="http://www.w3.org/2000/svg">
<path d="M64.25 42V15.75H55.5V11.375H86.125V15.75H77.375V42H64.25ZM94.875 42V37.625H99.25V15.75H94.875V11.375H116.75V15.75H112.375V37.625H116.75V42H94.875ZM125.5 42V11.375H134.25V15.75H138.625V20.125H143V15.75H147.375V11.375H156.125V42H147.375V28.875H143V33.25H138.625V28.875H134.25V42H125.5ZM160.5 42V11.375H191.125V15.75H173.625V24.5H186.75V28.875H173.625V37.625H191.125V42H160.5ZM11.75 88V83.625H7.375V79.25H3V66.125H7.375V61.75H11.75V57.375H29.25V61.75H33.625V66.125H24.875V61.75H16.125V83.625H24.875V79.25H33.625V83.625H29.25V88H11.75ZM59.875 74.875V66.125H51.125V74.875H59.875ZM38 88V66.125H42.375V61.75H46.75V57.375H59.875V61.75H64.25V66.125H68.625V88H59.875V79.25H51.125V88H38ZM94.875 74.875V61.75H86.125V74.875H94.875ZM73 88V57.375H99.25V61.75H103.625V74.875H99.25V79.25H86.125V88H73ZM112.375 88V83.625H108V79.25H121.125V83.625H129.875V74.875H112.375V70.5H108V61.75H112.375V57.375H129.875V61.75H134.25V66.125H125.5V61.75H121.125V70.5H134.25V74.875H138.625V83.625H134.25V88H112.375ZM147.375 88V83.625H143V57.375H156.125V83.625H164.875V57.375H173.625V83.625H169.25V88H147.375ZM182.375 88V57.375H195.5V83.625H208.625V88H182.375ZM213 88V57.375H243.625V61.75H226.125V70.5H239.25V74.875H226.125V83.625H243.625V88H213Z" fill="#2F6998"/>
<path d="M64.25 42H62.25V44H64.25V42ZM64.25 15.75H66.25V13.75H64.25V15.75ZM55.5 15.75H53.5V17.75H55.5V15.75ZM55.5 11.375V9.375H53.5V11.375H55.5ZM86.125 11.375H88.125V9.375H86.125V11.375ZM86.125 15.75V17.75H88.125V15.75H86.125ZM77.375 15.75V13.75H75.375V15.75H77.375ZM77.375 42V44H79.375V42H77.375ZM66.25 42V15.75H62.25V42H66.25ZM64.25 13.75H55.5V17.75H64.25V13.75ZM57.5 15.75V11.375H53.5V15.75H57.5ZM55.5 13.375H86.125V9.375H55.5V13.375ZM84.125 11.375V15.75H88.125V11.375H84.125ZM86.125 13.75H77.375V17.75H86.125V13.75ZM75.375 15.75V42H79.375V15.75H75.375ZM77.375 40H64.25V44H77.375V40ZM94.875 42H92.875V44H94.875V42ZM94.875 37.625V35.625H92.875V37.625H94.875ZM99.25 37.625V39.625H101.25V37.625H99.25ZM99.25 15.75H101.25V13.75H99.25V15.75ZM94.875 15.75H92.875V17.75H94.875V15.75ZM94.875 11.375V9.375H92.875V11.375H94.875ZM116.75 11.375H118.75V9.375H116.75V11.375ZM116.75 15.75V17.75H118.75V15.75H116.75ZM112.375 15.75V13.75H110.375V15.75H112.375ZM112.375 37.625H110.375V39.625H112.375V37.625ZM116.75 37.625H118.75V35.625H116.75V37.625ZM116.75 42V44H118.75V42H116.75ZM96.875 42V37.625H92.875V42H96.875ZM94.875 39.625H99.25V35.625H94.875V39.625ZM101.25 37.625V15.75H97.25V37.625H101.25ZM99.25 13.75H94.875V17.75H99.25V13.75ZM96.875 15.75V11.375H92.875V15.75H96.875ZM94.875 13.375H116.75V9.375H94.875V13.375ZM114.75 11.375V15.75H118.75V11.375H114.75ZM116.75 13.75H112.375V17.75H116.75V13.75ZM110.375 15.75V37.625H114.375V15.75H110.375ZM112.375 39.625H116.75V35.625H112.375V39.625ZM114.75 37.625V42H118.75V37.625H114.75ZM116.75 40H94.875V44H116.75V40ZM125.5 42H123.5V44H125.5V42ZM125.5 11.375V9.375H123.5V11.375H125.5ZM134.25 11.375H136.25V9.375H134.25V11.375ZM134.25 15.75H132.25V17.75H134.25V15.75ZM138.625 15.75H140.625V13.75H138.625V15.75ZM138.625 20.125H136.625V22.125H138.625V20.125ZM143 20.125V22.125H145V20.125H143ZM143 15.75V13.75H141V15.75H143ZM147.375 15.75V17.75H149.375V15.75H147.375ZM147.375 11.375V9.375H145.375V11.375H147.375ZM156.125 11.375H158.125V9.375H156.125V11.375ZM156.125 42V44H158.125V42H156.125ZM147.375 42H145.375V44H147.375V42ZM147.375 28.875H149.375V26.875H147.375V28.875ZM143 28.875V26.875H141V28.875H143ZM143 33.25V35.25H145V33.25H143ZM138.625 33.25H136.625V35.25H138.625V33.25ZM138.625 28.875H140.625V26.875H138.625V28.875ZM134.25 28.875V26.875H132.25V28.875H134.25ZM134.25 42V44H136.25V42H134.25ZM127.5 42V11.375H123.5V42H127.5ZM125.5 13.375H134.25V9.375H125.5V13.375ZM132.25 11.375V15.75H136.25V11.375H132.25ZM134.25 17.75H138.625V13.75H134.25V17.75ZM136.625 15.75V20.125H140.625V15.75H136.625ZM138.625 22.125H143V18.125H138.625V22.125ZM145 20.125V15.75H141V20.125H145ZM143 17.75H147.375V13.75H143V17.75ZM149.375 15.75V11.375H145.375V15.75H149.375ZM147.375 13.375H156.125V9.375H147.375V13.375ZM154.125 11.375V42H158.125V11.375H154.125ZM156.125 40H147.375V44H156.125V40ZM149.375 42V28.875H145.375V42H149.375ZM147.375 26.875H143V30.875H147.375V26.875ZM141 28.875V33.25H145V28.875H141ZM143 31.25H138.625V35.25H143V31.25ZM140.625 33.25V28.875H136.625V33.25H140.625ZM138.625 26.875H134.25V30.875H138.625V26.875ZM132.25 28.875V42H136.25V28.875H132.25ZM134.25 40H125.5V44H134.25V40ZM160.5 42H158.5V44H160.5V42ZM160.5 11.375V9.375H158.5V11.375H160.5ZM191.125 11.375H193.125V9.375H191.125V11.375ZM191.125 15.75V17.75H193.125V15.75H191.125ZM173.625 15.75V13.75H171.625V15.75H173.625ZM173.625 24.5H171.625V26.5H173.625V24.5ZM186.75 24.5H188.75V22.5H186.75V24.5ZM186.75 28.875V30.875H188.75V28.875H186.75ZM173.625 28.875V26.875H171.625V28.875H173.625ZM173.625 37.625H171.625V39.625H173.625V37.625ZM191.125 37.625H193.125V35.625H191.125V37.625ZM191.125 42V44H193.125V42H191.125ZM162.5 42V11.375H158.5V42H162.5ZM160.5 13.375H191.125V9.375H160.5V13.375ZM189.125 11.375V15.75H193.125V11.375H189.125ZM191.125 13.75H173.625V17.75H191.125V13.75ZM171.625 15.75V24.5H175.625V15.75H171.625ZM173.625 26.5H186.75V22.5H173.625V26.5ZM184.75 24.5V28.875H188.75V24.5H184.75ZM186.75 26.875H173.625V30.875H186.75V26.875ZM171.625 28.875V37.625H175.625V28.875H171.625ZM173.625 39.625H191.125V35.625H173.625V39.625ZM189.125 37.625V42H193.125V37.625H189.125ZM191.125 40H160.5V44H191.125V40ZM11.75 88H9.75V90H11.75V88ZM11.75 83.625H13.75V81.625H11.75V83.625ZM7.375 83.625H5.375V85.625H7.375V83.625ZM7.375 79.25H9.375V77.25H7.375V79.25ZM3 79.25H1V81.25H3V79.25ZM3 66.125V64.125H1V66.125H3ZM7.375 66.125V68.125H9.375V66.125H7.375ZM7.375 61.75V59.75H5.375V61.75H7.375ZM11.75 61.75V63.75H13.75V61.75H11.75ZM11.75 57.375V55.375H9.75V57.375H11.75ZM29.25 57.375H31.25V55.375H29.25V57.375ZM29.25 61.75H27.25V63.75H29.25V61.75ZM33.625 61.75H35.625V59.75H33.625V61.75ZM33.625 66.125V68.125H35.625V66.125H33.625ZM24.875 66.125H22.875V68.125H24.875V66.125ZM24.875 61.75H26.875V59.75H24.875V61.75ZM16.125 61.75V59.75H14.125V61.75H16.125ZM16.125 83.625H14.125V85.625H16.125V83.625ZM24.875 83.625V85.625H26.875V83.625H24.875ZM24.875 79.25V77.25H22.875V79.25H24.875ZM33.625 79.25H35.625V77.25H33.625V79.25ZM33.625 83.625V85.625H35.625V83.625H33.625ZM29.25 83.625V81.625H27.25V83.625H29.25ZM29.25 88V90H31.25V88H29.25ZM13.75 88V83.625H9.75V88H13.75ZM11.75 81.625H7.375V85.625H11.75V81.625ZM9.375 83.625V79.25H5.375V83.625H9.375ZM7.375 77.25H3V81.25H7.375V77.25ZM5 79.25V66.125H1V79.25H5ZM3 68.125H7.375V64.125H3V68.125ZM9.375 66.125V61.75H5.375V66.125H9.375ZM7.375 63.75H11.75V59.75H7.375V63.75ZM13.75 61.75V57.375H9.75V61.75H13.75ZM11.75 59.375H29.25V55.375H11.75V59.375ZM27.25 57.375V61.75H31.25V57.375H27.25ZM29.25 63.75H33.625V59.75H29.25V63.75ZM31.625 61.75V66.125H35.625V61.75H31.625ZM33.625 64.125H24.875V68.125H33.625V64.125ZM26.875 66.125V61.75H22.875V66.125H26.875ZM24.875 59.75H16.125V63.75H24.875V59.75ZM14.125 61.75V83.625H18.125V61.75H14.125ZM16.125 85.625H24.875V81.625H16.125V85.625ZM26.875 83.625V79.25H22.875V83.625H26.875ZM24.875 81.25H33.625V77.25H24.875V81.25ZM31.625 79.25V83.625H35.625V79.25H31.625ZM33.625 81.625H29.25V85.625H33.625V81.625ZM27.25 83.625V88H31.25V83.625H27.25ZM29.25 86H11.75V90H29.25V86ZM59.875 74.875V76.875H61.875V74.875H59.875ZM59.875 66.125H61.875V64.125H59.875V66.125ZM51.125 66.125V64.125H49.125V66.125H51.125ZM51.125 74.875H49.125V76.875H51.125V74.875ZM38 88H36V90H38V88ZM38 66.125V64.125H36V66.125H38ZM42.375 66.125V68.125H44.375V66.125H42.375ZM42.375 61.75V59.75H40.375V61.75H42.375ZM46.75 61.75V63.75H48.75V61.75H46.75ZM46.75 57.375V55.375H44.75V57.375H46.75ZM59.875 57.375H61.875V55.375H59.875V57.375ZM59.875 61.75H57.875V63.75H59.875V61.75ZM64.25 61.75H66.25V59.75H64.25V61.75ZM64.25 66.125H62.25V68.125H64.25V66.125ZM68.625 66.125H70.625V64.125H68.625V66.125ZM68.625 88V90H70.625V88H68.625ZM59.875 88H57.875V90H59.875V88ZM59.875 79.25H61.875V77.25H59.875V79.25ZM51.125 79.25V77.25H49.125V79.25H51.125ZM51.125 88V90H53.125V88H51.125ZM61.875 74.875V66.125H57.875V74.875H61.875ZM59.875 64.125H51.125V68.125H59.875V64.125ZM49.125 66.125V74.875H53.125V66.125H49.125ZM51.125 76.875H59.875V72.875H51.125V76.875ZM40 88V66.125H36V88H40ZM38 68.125H42.375V64.125H38V68.125ZM44.375 66.125V61.75H40.375V66.125H44.375ZM42.375 63.75H46.75V59.75H42.375V63.75ZM48.75 61.75V57.375H44.75V61.75H48.75ZM46.75 59.375H59.875V55.375H46.75V59.375ZM57.875 57.375V61.75H61.875V57.375H57.875ZM59.875 63.75H64.25V59.75H59.875V63.75ZM62.25 61.75V66.125H66.25V61.75H62.25ZM64.25 68.125H68.625V64.125H64.25V68.125ZM66.625 66.125V88H70.625V66.125H66.625ZM68.625 86H59.875V90H68.625V86ZM61.875 88V79.25H57.875V88H61.875ZM59.875 77.25H51.125V81.25H59.875V77.25ZM49.125 79.25V88H53.125V79.25H49.125ZM51.125 86H38V90H51.125V86ZM94.875 74.875V76.875H96.875V74.875H94.875ZM94.875 61.75H96.875V59.75H94.875V61.75ZM86.125 61.75V59.75H84.125V61.75H86.125ZM86.125 74.875H84.125V76.875H86.125V74.875ZM73 88H71V90H73V88ZM73 57.375V55.375H71V57.375H73ZM99.25 57.375H101.25V55.375H99.25V57.375ZM99.25 61.75H97.25V63.75H99.25V61.75ZM103.625 61.75H105.625V59.75H103.625V61.75ZM103.625 74.875V76.875H105.625V74.875H103.625ZM99.25 74.875V72.875H97.25V74.875H99.25ZM99.25 79.25V81.25H101.25V79.25H99.25ZM86.125 79.25V77.25H84.125V79.25H86.125ZM86.125 88V90H88.125V88H86.125ZM96.875 74.875V61.75H92.875V74.875H96.875ZM94.875 59.75H86.125V63.75H94.875V59.75ZM84.125 61.75V74.875H88.125V61.75H84.125ZM86.125 76.875H94.875V72.875H86.125V76.875ZM75 88V57.375H71V88H75ZM73 59.375H99.25V55.375H73V59.375ZM97.25 57.375V61.75H101.25V57.375H97.25ZM99.25 63.75H103.625V59.75H99.25V63.75ZM101.625 61.75V74.875H105.625V61.75H101.625ZM103.625 72.875H99.25V76.875H103.625V72.875ZM97.25 74.875V79.25H101.25V74.875H97.25ZM99.25 77.25H86.125V81.25H99.25V77.25ZM84.125 79.25V88H88.125V79.25H84.125ZM86.125 86H73V90H86.125V86ZM112.375 88H110.375V90H112.375V88ZM112.375 83.625H114.375V81.625H112.375V83.625ZM108 83.625H106V85.625H108V83.625ZM108 79.25V77.25H106V79.25H108ZM121.125 79.25H123.125V77.25H121.125V79.25ZM121.125 83.625H119.125V85.625H121.125V83.625ZM129.875 83.625V85.625H131.875V83.625H129.875ZM129.875 74.875H131.875V72.875H129.875V74.875ZM112.375 74.875H110.375V76.875H112.375V74.875ZM112.375 70.5H114.375V68.5H112.375V70.5ZM108 70.5H106V72.5H108V70.5ZM108 61.75V59.75H106V61.75H108ZM112.375 61.75V63.75H114.375V61.75H112.375ZM112.375 57.375V55.375H110.375V57.375H112.375ZM129.875 57.375H131.875V55.375H129.875V57.375ZM129.875 61.75H127.875V63.75H129.875V61.75ZM134.25 61.75H136.25V59.75H134.25V61.75ZM134.25 66.125V68.125H136.25V66.125H134.25ZM125.5 66.125H123.5V68.125H125.5V66.125ZM125.5 61.75H127.5V59.75H125.5V61.75ZM121.125 61.75V59.75H119.125V61.75H121.125ZM121.125 70.5H119.125V72.5H121.125V70.5ZM134.25 70.5H136.25V68.5H134.25V70.5ZM134.25 74.875H132.25V76.875H134.25V74.875ZM138.625 74.875H140.625V72.875H138.625V74.875ZM138.625 83.625V85.625H140.625V83.625H138.625ZM134.25 83.625V81.625H132.25V83.625H134.25ZM134.25 88V90H136.25V88H134.25ZM114.375 88V83.625H110.375V88H114.375ZM112.375 81.625H108V85.625H112.375V81.625ZM110 83.625V79.25H106V83.625H110ZM108 81.25H121.125V77.25H108V81.25ZM119.125 79.25V83.625H123.125V79.25H119.125ZM121.125 85.625H129.875V81.625H121.125V85.625ZM131.875 83.625V74.875H127.875V83.625H131.875ZM129.875 72.875H112.375V76.875H129.875V72.875ZM114.375 74.875V70.5H110.375V74.875H114.375ZM112.375 68.5H108V72.5H112.375V68.5ZM110 70.5V61.75H106V70.5H110ZM108 63.75H112.375V59.75H108V63.75ZM114.375 61.75V57.375H110.375V61.75H114.375ZM112.375 59.375H129.875V55.375H112.375V59.375ZM127.875 57.375V61.75H131.875V57.375H127.875ZM129.875 63.75H134.25V59.75H129.875V63.75ZM132.25 61.75V66.125H136.25V61.75H132.25ZM134.25 64.125H125.5V68.125H134.25V64.125ZM127.5 66.125V61.75H123.5V66.125H127.5ZM125.5 59.75H121.125V63.75H125.5V59.75ZM119.125 61.75V70.5H123.125V61.75H119.125ZM121.125 72.5H134.25V68.5H121.125V72.5ZM132.25 70.5V74.875H136.25V70.5H132.25ZM134.25 76.875H138.625V72.875H134.25V76.875ZM136.625 74.875V83.625H140.625V74.875H136.625ZM138.625 81.625H134.25V85.625H138.625V81.625ZM132.25 83.625V88H136.25V83.625H132.25ZM134.25 86H112.375V90H134.25V86ZM147.375 88H145.375V90H147.375V88ZM147.375 83.625H149.375V81.625H147.375V83.625ZM143 83.625H141V85.625H143V83.625ZM143 57.375V55.375H141V57.375H143ZM156.125 57.375H158.125V55.375H156.125V57.375ZM156.125 83.625H154.125V85.625H156.125V83.625ZM164.875 83.625V85.625H166.875V83.625H164.875ZM164.875 57.375V55.375H162.875V57.375H164.875ZM173.625 57.375H175.625V55.375H173.625V57.375ZM173.625 83.625V85.625H175.625V83.625H173.625ZM169.25 83.625V81.625H167.25V83.625H169.25ZM169.25 88V90H171.25V88H169.25ZM149.375 88V83.625H145.375V88H149.375ZM147.375 81.625H143V85.625H147.375V81.625ZM145 83.625V57.375H141V83.625H145ZM143 59.375H156.125V55.375H143V59.375ZM154.125 57.375V83.625H158.125V57.375H154.125ZM156.125 85.625H164.875V81.625H156.125V85.625ZM166.875 83.625V57.375H162.875V83.625H166.875ZM164.875 59.375H173.625V55.375H164.875V59.375ZM171.625 57.375V83.625H175.625V57.375H171.625ZM173.625 81.625H169.25V85.625H173.625V81.625ZM167.25 83.625V88H171.25V83.625H167.25ZM169.25 86H147.375V90H169.25V86ZM182.375 88H180.375V90H182.375V88ZM182.375 57.375V55.375H180.375V57.375H182.375ZM195.5 57.375H197.5V55.375H195.5V57.375ZM195.5 83.625H193.5V85.625H195.5V83.625ZM208.625 83.625H210.625V81.625H208.625V83.625ZM208.625 88V90H210.625V88H208.625ZM184.375 88V57.375H180.375V88H184.375ZM182.375 59.375H195.5V55.375H182.375V59.375ZM193.5 57.375V83.625H197.5V57.375H193.5ZM195.5 85.625H208.625V81.625H195.5V85.625ZM206.625 83.625V88H210.625V83.625H206.625ZM208.625 86H182.375V90H208.625V86ZM213 88H211V90H213V88ZM213 57.375V55.375H211V57.375H213ZM243.625 57.375H245.625V55.375H243.625V57.375ZM243.625 61.75V63.75H245.625V61.75H243.625ZM226.125 61.75V59.75H224.125V61.75H226.125ZM226.125 70.5H224.125V72.5H226.125V70.5ZM239.25 70.5H241.25V68.5H239.25V70.5ZM239.25 74.875V76.875H241.25V74.875H239.25ZM226.125 74.875V72.875H224.125V74.875H226.125ZM226.125 83.625H224.125V85.625H226.125V83.625ZM243.625 83.625H245.625V81.625H243.625V83.625ZM243.625 88V90H245.625V88H243.625ZM215 88V57.375H211V88H215ZM213 59.375H243.625V55.375H213V59.375ZM241.625 57.375V61.75H245.625V57.375H241.625ZM243.625 59.75H226.125V63.75H243.625V59.75ZM224.125 61.75V70.5H228.125V61.75H224.125ZM226.125 72.5H239.25V68.5H226.125V72.5ZM237.25 70.5V74.875H241.25V70.5H237.25ZM239.25 72.875H226.125V76.875H239.25V72.875ZM224.125 74.875V83.625H228.125V74.875H224.125ZM226.125 85.625H243.625V81.625H226.125V85.625ZM241.625 83.625V88H245.625V83.625H241.625ZM243.625 86H213V90H243.625V86Z" fill="#2F6998"/>
<path d="M61.25 38V11.75H52.5V7.375H83.125V11.75H74.375V38H61.25ZM91.875 38V33.625H96.25V11.75H91.875V7.375H113.75V11.75H109.375V33.625H113.75V38H91.875ZM122.5 38V7.375H131.25V11.75H135.625V16.125H140V11.75H144.375V7.375H153.125V38H144.375V24.875H140V29.25H135.625V24.875H131.25V38H122.5ZM157.5 38V7.375H188.125V11.75H170.625V20.5H183.75V24.875H170.625V33.625H188.125V38H157.5ZM8.75 84V79.625H4.375V75.25H0V62.125H4.375V57.75H8.75V53.375H26.25V57.75H30.625V62.125H21.875V57.75H13.125V79.625H21.875V75.25H30.625V79.625H26.25V84H8.75ZM56.875 70.875V62.125H48.125V70.875H56.875ZM35 84V62.125H39.375V57.75H43.75V53.375H56.875V57.75H61.25V62.125H65.625V84H56.875V75.25H48.125V84H35ZM91.875 70.875V57.75H83.125V70.875H91.875ZM70 84V53.375H96.25V57.75H100.625V70.875H96.25V75.25H83.125V84H70ZM109.375 84V79.625H105V75.25H118.125V79.625H126.875V70.875H109.375V66.5H105V57.75H109.375V53.375H126.875V57.75H131.25V62.125H122.5V57.75H118.125V66.5H131.25V70.875H135.625V79.625H131.25V84H109.375ZM144.375 84V79.625H140V53.375H153.125V79.625H161.875V53.375H170.625V79.625H166.25V84H144.375ZM179.375 84V53.375H192.5V79.625H205.625V84H179.375ZM210 84V53.375H240.625V57.75H223.125V66.5H236.25V70.875H223.125V79.625H240.625V84H210Z" fill="white"/>
<path d="M61.25 38H59.25V40H61.25V38ZM61.25 11.75H63.25V9.75H61.25V11.75ZM52.5 11.75H50.5V13.75H52.5V11.75ZM52.5 7.375V5.375H50.5V7.375H52.5ZM83.125 7.375H85.125V5.375H83.125V7.375ZM83.125 11.75V13.75H85.125V11.75H83.125ZM74.375 11.75V9.75H72.375V11.75H74.375ZM74.375 38V40H76.375V38H74.375ZM63.25 38V11.75H59.25V38H63.25ZM61.25 9.75H52.5V13.75H61.25V9.75ZM54.5 11.75V7.375H50.5V11.75H54.5ZM52.5 9.375H83.125V5.375H52.5V9.375ZM81.125 7.375V11.75H85.125V7.375H81.125ZM83.125 9.75H74.375V13.75H83.125V9.75ZM72.375 11.75V38H76.375V11.75H72.375ZM74.375 36H61.25V40H74.375V36ZM91.875 38H89.875V40H91.875V38ZM91.875 33.625V31.625H89.875V33.625H91.875ZM96.25 33.625V35.625H98.25V33.625H96.25ZM96.25 11.75H98.25V9.75H96.25V11.75ZM91.875 11.75H89.875V13.75H91.875V11.75ZM91.875 7.375V5.375H89.875V7.375H91.875ZM113.75 7.375H115.75V5.375H113.75V7.375ZM113.75 11.75V13.75H115.75V11.75H113.75ZM109.375 11.75V9.75H107.375V11.75H109.375ZM109.375 33.625H107.375V35.625H109.375V33.625ZM113.75 33.625H115.75V31.625H113.75V33.625ZM113.75 38V40H115.75V38H113.75ZM93.875 38V33.625H89.875V38H93.875ZM91.875 35.625H96.25V31.625H91.875V35.625ZM98.25 33.625V11.75H94.25V33.625H98.25ZM96.25 9.75H91.875V13.75H96.25V9.75ZM93.875 11.75V7.375H89.875V11.75H93.875ZM91.875 9.375H113.75V5.375H91.875V9.375ZM111.75 7.375V11.75H115.75V7.375H111.75ZM113.75 9.75H109.375V13.75H113.75V9.75ZM107.375 11.75V33.625H111.375V11.75H107.375ZM109.375 35.625H113.75V31.625H109.375V35.625ZM111.75 33.625V38H115.75V33.625H111.75ZM113.75 36H91.875V40H113.75V36ZM122.5 38H120.5V40H122.5V38ZM122.5 7.375V5.375H120.5V7.375H122.5ZM131.25 7.375H133.25V5.375H131.25V7.375ZM131.25 11.75H129.25V13.75H131.25V11.75ZM135.625 11.75H137.625V9.75H135.625V11.75ZM135.625 16.125H133.625V18.125H135.625V16.125ZM140 16.125V18.125H142V16.125H140ZM140 11.75V9.75H138V11.75H140ZM144.375 11.75V13.75H146.375V11.75H144.375ZM144.375 7.375V5.375H142.375V7.375H144.375ZM153.125 7.375H155.125V5.375H153.125V7.375ZM153.125 38V40H155.125V38H153.125ZM144.375 38H142.375V40H144.375V38ZM144.375 24.875H146.375V22.875H144.375V24.875ZM140 24.875V22.875H138V24.875H140ZM140 29.25V31.25H142V29.25H140ZM135.625 29.25H133.625V31.25H135.625V29.25ZM135.625 24.875H137.625V22.875H135.625V24.875ZM131.25 24.875V22.875H129.25V24.875H131.25ZM131.25 38V40H133.25V38H131.25ZM124.5 38V7.375H120.5V38H124.5ZM122.5 9.375H131.25V5.375H122.5V9.375ZM129.25 7.375V11.75H133.25V7.375H129.25ZM131.25 13.75H135.625V9.75H131.25V13.75ZM133.625 11.75V16.125H137.625V11.75H133.625ZM135.625 18.125H140V14.125H135.625V18.125ZM142 16.125V11.75H138V16.125H142ZM140 13.75H144.375V9.75H140V13.75ZM146.375 11.75V7.375H142.375V11.75H146.375ZM144.375 9.375H153.125V5.375H144.375V9.375ZM151.125 7.375V38H155.125V7.375H151.125ZM153.125 36H144.375V40H153.125V36ZM146.375 38V24.875H142.375V38H146.375ZM144.375 22.875H140V26.875H144.375V22.875ZM138 24.875V29.25H142V24.875H138ZM140 27.25H135.625V31.25H140V27.25ZM137.625 29.25V24.875H133.625V29.25H137.625ZM135.625 22.875H131.25V26.875H135.625V22.875ZM129.25 24.875V38H133.25V24.875H129.25ZM131.25 36H122.5V40H131.25V36ZM157.5 38H155.5V40H157.5V38ZM157.5 7.375V5.375H155.5V7.375H157.5ZM188.125 7.375H190.125V5.375H188.125V7.375ZM188.125 11.75V13.75H190.125V11.75H188.125ZM170.625 11.75V9.75H168.625V11.75H170.625ZM170.625 20.5H168.625V22.5H170.625V20.5ZM183.75 20.5H185.75V18.5H183.75V20.5ZM183.75 24.875V26.875H185.75V24.875H183.75ZM170.625 24.875V22.875H168.625V24.875H170.625ZM170.625 33.625H168.625V35.625H170.625V33.625ZM188.125 33.625H190.125V31.625H188.125V33.625ZM188.125 38V40H190.125V38H188.125ZM159.5 38V7.375H155.5V38H159.5ZM157.5 9.375H188.125V5.375H157.5V9.375ZM186.125 7.375V11.75H190.125V7.375H186.125ZM188.125 9.75H170.625V13.75H188.125V9.75ZM168.625 11.75V20.5H172.625V11.75H168.625ZM170.625 22.5H183.75V18.5H170.625V22.5ZM181.75 20.5V24.875H185.75V20.5H181.75ZM183.75 22.875H170.625V26.875H183.75V22.875ZM168.625 24.875V33.625H172.625V24.875H168.625ZM170.625 35.625H188.125V31.625H170.625V35.625ZM186.125 33.625V38H190.125V33.625H186.125ZM188.125 36H157.5V40H188.125V36ZM8.75 84H6.75V86H8.75V84ZM8.75 79.625H10.75V77.625H8.75V79.625ZM4.375 79.625H2.375V81.625H4.375V79.625ZM4.375 75.25H6.375V73.25H4.375V75.25ZM0 75.25H-2V77.25H0V75.25ZM0 62.125V60.125H-2V62.125H0ZM4.375 62.125V64.125H6.375V62.125H4.375ZM4.375 57.75V55.75H2.375V57.75H4.375ZM8.75 57.75V59.75H10.75V57.75H8.75ZM8.75 53.375V51.375H6.75V53.375H8.75ZM26.25 53.375H28.25V51.375H26.25V53.375ZM26.25 57.75H24.25V59.75H26.25V57.75ZM30.625 57.75H32.625V55.75H30.625V57.75ZM30.625 62.125V64.125H32.625V62.125H30.625ZM21.875 62.125H19.875V64.125H21.875V62.125ZM21.875 57.75H23.875V55.75H21.875V57.75ZM13.125 57.75V55.75H11.125V57.75H13.125ZM13.125 79.625H11.125V81.625H13.125V79.625ZM21.875 79.625V81.625H23.875V79.625H21.875ZM21.875 75.25V73.25H19.875V75.25H21.875ZM30.625 75.25H32.625V73.25H30.625V75.25ZM30.625 79.625V81.625H32.625V79.625H30.625ZM26.25 79.625V77.625H24.25V79.625H26.25ZM26.25 84V86H28.25V84H26.25ZM10.75 84V79.625H6.75V84H10.75ZM8.75 77.625H4.375V81.625H8.75V77.625ZM6.375 79.625V75.25H2.375V79.625H6.375ZM4.375 73.25H0V77.25H4.375V73.25ZM2 75.25V62.125H-2V75.25H2ZM0 64.125H4.375V60.125H0V64.125ZM6.375 62.125V57.75H2.375V62.125H6.375ZM4.375 59.75H8.75V55.75H4.375V59.75ZM10.75 57.75V53.375H6.75V57.75H10.75ZM8.75 55.375H26.25V51.375H8.75V55.375ZM24.25 53.375V57.75H28.25V53.375H24.25ZM26.25 59.75H30.625V55.75H26.25V59.75ZM28.625 57.75V62.125H32.625V57.75H28.625ZM30.625 60.125H21.875V64.125H30.625V60.125ZM23.875 62.125V57.75H19.875V62.125H23.875ZM21.875 55.75H13.125V59.75H21.875V55.75ZM11.125 57.75V79.625H15.125V57.75H11.125ZM13.125 81.625H21.875V77.625H13.125V81.625ZM23.875 79.625V75.25H19.875V79.625H23.875ZM21.875 77.25H30.625V73.25H21.875V77.25ZM28.625 75.25V79.625H32.625V75.25H28.625ZM30.625 77.625H26.25V81.625H30.625V77.625ZM24.25 79.625V84H28.25V79.625H24.25ZM26.25 82H8.75V86H26.25V82ZM56.875 70.875V72.875H58.875V70.875H56.875ZM56.875 62.125H58.875V60.125H56.875V62.125ZM48.125 62.125V60.125H46.125V62.125H48.125ZM48.125 70.875H46.125V72.875H48.125V70.875ZM35 84H33V86H35V84ZM35 62.125V60.125H33V62.125H35ZM39.375 62.125V64.125H41.375V62.125H39.375ZM39.375 57.75V55.75H37.375V57.75H39.375ZM43.75 57.75V59.75H45.75V57.75H43.75ZM43.75 53.375V51.375H41.75V53.375H43.75ZM56.875 53.375H58.875V51.375H56.875V53.375ZM56.875 57.75H54.875V59.75H56.875V57.75ZM61.25 57.75H63.25V55.75H61.25V57.75ZM61.25 62.125H59.25V64.125H61.25V62.125ZM65.625 62.125H67.625V60.125H65.625V62.125ZM65.625 84V86H67.625V84H65.625ZM56.875 84H54.875V86H56.875V84ZM56.875 75.25H58.875V73.25H56.875V75.25ZM48.125 75.25V73.25H46.125V75.25H48.125ZM48.125 84V86H50.125V84H48.125ZM58.875 70.875V62.125H54.875V70.875H58.875ZM56.875 60.125H48.125V64.125H56.875V60.125ZM46.125 62.125V70.875H50.125V62.125H46.125ZM48.125 72.875H56.875V68.875H48.125V72.875ZM37 84V62.125H33V84H37ZM35 64.125H39.375V60.125H35V64.125ZM41.375 62.125V57.75H37.375V62.125H41.375ZM39.375 59.75H43.75V55.75H39.375V59.75ZM45.75 57.75V53.375H41.75V57.75H45.75ZM43.75 55.375H56.875V51.375H43.75V55.375ZM54.875 53.375V57.75H58.875V53.375H54.875ZM56.875 59.75H61.25V55.75H56.875V59.75ZM59.25 57.75V62.125H63.25V57.75H59.25ZM61.25 64.125H65.625V60.125H61.25V64.125ZM63.625 62.125V84H67.625V62.125H63.625ZM65.625 82H56.875V86H65.625V82ZM58.875 84V75.25H54.875V84H58.875ZM56.875 73.25H48.125V77.25H56.875V73.25ZM46.125 75.25V84H50.125V75.25H46.125ZM48.125 82H35V86H48.125V82ZM91.875 70.875V72.875H93.875V70.875H91.875ZM91.875 57.75H93.875V55.75H91.875V57.75ZM83.125 57.75V55.75H81.125V57.75H83.125ZM83.125 70.875H81.125V72.875H83.125V70.875ZM70 84H68V86H70V84ZM70 53.375V51.375H68V53.375H70ZM96.25 53.375H98.25V51.375H96.25V53.375ZM96.25 57.75H94.25V59.75H96.25V57.75ZM100.625 57.75H102.625V55.75H100.625V57.75ZM100.625 70.875V72.875H102.625V70.875H100.625ZM96.25 70.875V68.875H94.25V70.875H96.25ZM96.25 75.25V77.25H98.25V75.25H96.25ZM83.125 75.25V73.25H81.125V75.25H83.125ZM83.125 84V86H85.125V84H83.125ZM93.875 70.875V57.75H89.875V70.875H93.875ZM91.875 55.75H83.125V59.75H91.875V55.75ZM81.125 57.75V70.875H85.125V57.75H81.125ZM83.125 72.875H91.875V68.875H83.125V72.875ZM72 84V53.375H68V84H72ZM70 55.375H96.25V51.375H70V55.375ZM94.25 53.375V57.75H98.25V53.375H94.25ZM96.25 59.75H100.625V55.75H96.25V59.75ZM98.625 57.75V70.875H102.625V57.75H98.625ZM100.625 68.875H96.25V72.875H100.625V68.875ZM94.25 70.875V75.25H98.25V70.875H94.25ZM96.25 73.25H83.125V77.25H96.25V73.25ZM81.125 75.25V84H85.125V75.25H81.125ZM83.125 82H70V86H83.125V82ZM109.375 84H107.375V86H109.375V84ZM109.375 79.625H111.375V77.625H109.375V79.625ZM105 79.625H103V81.625H105V79.625ZM105 75.25V73.25H103V75.25H105ZM118.125 75.25H120.125V73.25H118.125V75.25ZM118.125 79.625H116.125V81.625H118.125V79.625ZM126.875 79.625V81.625H128.875V79.625H126.875ZM126.875 70.875H128.875V68.875H126.875V70.875ZM109.375 70.875H107.375V72.875H109.375V70.875ZM109.375 66.5H111.375V64.5H109.375V66.5ZM105 66.5H103V68.5H105V66.5ZM105 57.75V55.75H103V57.75H105ZM109.375 57.75V59.75H111.375V57.75H109.375ZM109.375 53.375V51.375H107.375V53.375H109.375ZM126.875 53.375H128.875V51.375H126.875V53.375ZM126.875 57.75H124.875V59.75H126.875V57.75ZM131.25 57.75H133.25V55.75H131.25V57.75ZM131.25 62.125V64.125H133.25V62.125H131.25ZM122.5 62.125H120.5V64.125H122.5V62.125ZM122.5 57.75H124.5V55.75H122.5V57.75ZM118.125 57.75V55.75H116.125V57.75H118.125ZM118.125 66.5H116.125V68.5H118.125V66.5ZM131.25 66.5H133.25V64.5H131.25V66.5ZM131.25 70.875H129.25V72.875H131.25V70.875ZM135.625 70.875H137.625V68.875H135.625V70.875ZM135.625 79.625V81.625H137.625V79.625H135.625ZM131.25 79.625V77.625H129.25V79.625H131.25ZM131.25 84V86H133.25V84H131.25ZM111.375 84V79.625H107.375V84H111.375ZM109.375 77.625H105V81.625H109.375V77.625ZM107 79.625V75.25H103V79.625H107ZM105 77.25H118.125V73.25H105V77.25ZM116.125 75.25V79.625H120.125V75.25H116.125ZM118.125 81.625H126.875V77.625H118.125V81.625ZM128.875 79.625V70.875H124.875V79.625H128.875ZM126.875 68.875H109.375V72.875H126.875V68.875ZM111.375 70.875V66.5H107.375V70.875H111.375ZM109.375 64.5H105V68.5H109.375V64.5ZM107 66.5V57.75H103V66.5H107ZM105 59.75H109.375V55.75H105V59.75ZM111.375 57.75V53.375H107.375V57.75H111.375ZM109.375 55.375H126.875V51.375H109.375V55.375ZM124.875 53.375V57.75H128.875V53.375H124.875ZM126.875 59.75H131.25V55.75H126.875V59.75ZM129.25 57.75V62.125H133.25V57.75H129.25ZM131.25 60.125H122.5V64.125H131.25V60.125ZM124.5 62.125V57.75H120.5V62.125H124.5ZM122.5 55.75H118.125V59.75H122.5V55.75ZM116.125 57.75V66.5H120.125V57.75H116.125ZM118.125 68.5H131.25V64.5H118.125V68.5ZM129.25 66.5V70.875H133.25V66.5H129.25ZM131.25 72.875H135.625V68.875H131.25V72.875ZM133.625 70.875V79.625H137.625V70.875H133.625ZM135.625 77.625H131.25V81.625H135.625V77.625ZM129.25 79.625V84H133.25V79.625H129.25ZM131.25 82H109.375V86H131.25V82ZM144.375 84H142.375V86H144.375V84ZM144.375 79.625H146.375V77.625H144.375V79.625ZM140 79.625H138V81.625H140V79.625ZM140 53.375V51.375H138V53.375H140ZM153.125 53.375H155.125V51.375H153.125V53.375ZM153.125 79.625H151.125V81.625H153.125V79.625ZM161.875 79.625V81.625H163.875V79.625H161.875ZM161.875 53.375V51.375H159.875V53.375H161.875ZM170.625 53.375H172.625V51.375H170.625V53.375ZM170.625 79.625V81.625H172.625V79.625H170.625ZM166.25 79.625V77.625H164.25V79.625H166.25ZM166.25 84V86H168.25V84H166.25ZM146.375 84V79.625H142.375V84H146.375ZM144.375 77.625H140V81.625H144.375V77.625ZM142 79.625V53.375H138V79.625H142ZM140 55.375H153.125V51.375H140V55.375ZM151.125 53.375V79.625H155.125V53.375H151.125ZM153.125 81.625H161.875V77.625H153.125V81.625ZM163.875 79.625V53.375H159.875V79.625H163.875ZM161.875 55.375H170.625V51.375H161.875V55.375ZM168.625 53.375V79.625H172.625V53.375H168.625ZM170.625 77.625H166.25V81.625H170.625V77.625ZM164.25 79.625V84H168.25V79.625H164.25ZM166.25 82H144.375V86H166.25V82ZM179.375 84H177.375V86H179.375V84ZM179.375 53.375V51.375H177.375V53.375H179.375ZM192.5 53.375H194.5V51.375H192.5V53.375ZM192.5 79.625H190.5V81.625H192.5V79.625ZM205.625 79.625H207.625V77.625H205.625V79.625ZM205.625 84V86H207.625V84H205.625ZM181.375 84V53.375H177.375V84H181.375ZM179.375 55.375H192.5V51.375H179.375V55.375ZM190.5 53.375V79.625H194.5V53.375H190.5ZM192.5 81.625H205.625V77.625H192.5V81.625ZM203.625 79.625V84H207.625V79.625H203.625ZM205.625 82H179.375V86H205.625V82ZM210 84H208V86H210V84ZM210 53.375V51.375H208V53.375H210ZM240.625 53.375H242.625V51.375H240.625V53.375ZM240.625 57.75V59.75H242.625V57.75H240.625ZM223.125 57.75V55.75H221.125V57.75H223.125ZM223.125 66.5H221.125V68.5H223.125V66.5ZM236.25 66.5H238.25V64.5H236.25V66.5ZM236.25 70.875V72.875H238.25V70.875H236.25ZM223.125 70.875V68.875H221.125V70.875H223.125ZM223.125 79.625H221.125V81.625H223.125V79.625ZM240.625 79.625H242.625V77.625H240.625V79.625ZM240.625 84V86H242.625V84H240.625ZM212 84V53.375H208V84H212ZM210 55.375H240.625V51.375H210V55.375ZM238.625 53.375V57.75H242.625V53.375H238.625ZM240.625 55.75H223.125V59.75H240.625V55.75ZM221.125 57.75V66.5H225.125V57.75H221.125ZM223.125 68.5H236.25V64.5H223.125V68.5ZM234.25 66.5V70.875H238.25V66.5H234.25ZM236.25 68.875H223.125V72.875H236.25V68.875ZM221.125 70.875V79.625H225.125V70.875H221.125ZM223.125 81.625H240.625V77.625H223.125V81.625ZM238.625 79.625V84H242.625V79.625H238.625ZM240.625 82H210V86H240.625V82Z" fill="#2F6998"/>
</svg>
